<svg width="15" height="14" viewBox="0 0 15 14" fill="none" xmlns="http://www.w3.org/2000/svg">
<path fill-rule="evenodd" clip-rule="evenodd" d="M7.96227 0.923207C7.54619 0.560034 6.91448 0.602924 6.55131 1.01901C6.18813 1.43509 6.23102 2.0668 6.6471 2.42997L10.943 6.17958H1C0.447715 6.17958 0 6.62729 0 7.17958C0 7.73186 0.447715 8.17958 1 8.17958H10.9424L6.6471 11.9287C6.23102 12.2918 6.18813 12.9236 6.55131 13.3396C6.91448 13.7557 7.54619 13.7986 7.96227 13.4354L14.2621 7.93672C14.2678 7.9318 14.2734 7.92682 14.279 7.92177C14.342 7.86488 14.397 7.80075 14.443 7.73119C14.5062 7.63584 14.5535 7.52903 14.581 7.41455C14.5995 7.33822 14.6091 7.25931 14.6091 7.17932C14.6091 6.89053 14.4842 6.61584 14.2667 6.42594L7.96227 0.923207Z" fill="white"/>
</svg>
